<svg xmlns="http://www.w3.org/2000/svg" width="256" height="256" xml:space="preserve"><g style="stroke:none;stroke-width:0;stroke-dasharray:none;stroke-linecap:butt;stroke-linejoin:miter;stroke-miterlimit:10;fill:none;fill-rule:nonzero;opacity:1"><path d="M83.254 90H6.747A6.754 6.754 0 0 1 0 83.253V6.747A6.754 6.754 0 0 1 6.747 0h76.507A6.754 6.754 0 0 1 90 6.747v76.506A6.754 6.754 0 0 1 83.254 90zM6.747 4A2.75 2.75 0 0 0 4 6.747v76.506A2.75 2.75 0 0 0 6.747 86h76.507A2.749 2.749 0 0 0 86 83.253V6.747A2.749 2.749 0 0 0 83.254 4H6.747z" style="stroke:none;stroke-width:1;stroke-dasharray:none;stroke-linecap:butt;stroke-linejoin:miter;stroke-miterlimit:10;fill:#000;fill-rule:nonzero;opacity:1" transform="matrix(2.81 0 0 2.81 1.407 1.407)"/><path d="M49.54 76.318H38.775a2 2 0 0 1-2-2V49.571h-7a2 2 0 0 1-2-2V37.147a2 2 0 0 1 2-2h7V29.46c0-9.585 6.047-15.779 15.406-15.779 4.149 0 7.471.317 8.308.429a1.999 1.999 0 0 1 1.736 1.982v9.323a2 2 0 0 1-1.999 2l-5.521.002c-2.907 0-3.166.797-3.166 3.075v4.655h8.321a1.997 1.997 0 0 1 1.983 2.256l-1.344 10.424a2 2 0 0 1-1.983 1.744H51.54v24.747a2 2 0 0 1-2 2zm-8.765-4h6.765V47.571a2 2 0 0 1 2-2h7.219l.828-6.424H49.54a2 2 0 0 1-2-2v-6.655c0-1.75 0-7.075 7.165-7.075l3.521-.001v-5.508a82.032 82.032 0 0 0-6.044-.227c-7.249 0-11.406 4.293-11.406 11.779v7.687a2 2 0 0 1-2 2h-7v6.424h7a2 2 0 0 1 2 2v24.747z" style="stroke:none;stroke-width:1;stroke-dasharray:none;stroke-linecap:butt;stroke-linejoin:miter;stroke-miterlimit:10;fill:#000;fill-rule:nonzero;opacity:1" transform="matrix(2.81 0 0 2.81 1.407 1.407)"/></g></svg>