<svg xmlns="http://www.w3.org/2000/svg" xmlns:xlink="http://www.w3.org/1999/xlink" version="1.1" width="256" height="256" viewBox="0 0 256 256" xml:space="preserve">

<defs>
</defs>
<g style="stroke: none; stroke-width: 0; stroke-dasharray: none; stroke-linecap: butt; stroke-linejoin: miter; stroke-miterlimit: 10; fill: none; fill-rule: nonzero; opacity: 1;" transform="translate(1.4065934065934016 1.4065934065934016) scale(2.81 2.81)" >
	<path d="M 71.291 25.636 c -3.528 0 -6.398 -2.87 -6.398 -6.398 c 0 -3.527 2.87 -6.397 6.398 -6.397 c 3.527 0 6.397 2.87 6.397 6.397 C 77.688 22.766 74.818 25.636 71.291 25.636 z M 71.291 16.84 c -1.322 0 -2.398 1.076 -2.398 2.397 c 0 1.322 1.076 2.398 2.398 2.398 s 2.397 -1.076 2.397 -2.398 C 73.688 17.916 72.613 16.84 71.291 16.84 z" style="stroke: none; stroke-width: 1; stroke-dasharray: none; stroke-linecap: butt; stroke-linejoin: miter; stroke-miterlimit: 10; fill: rgb(0,0,0); fill-rule: nonzero; opacity: 1;" transform=" matrix(1 0 0 1 0 0) " stroke-linecap="round" />
	<path d="M 66.608 90 H 23.392 C 10.494 90 0 79.507 0 66.608 V 23.392 C 0 10.494 10.494 0 23.392 0 h 43.217 C 79.507 0 90 10.494 90 23.392 v 43.217 C 90 79.507 79.507 90 66.608 90 z M 23.392 4 C 12.699 4 4 12.699 4 23.392 v 43.217 C 4 77.301 12.699 86 23.392 86 h 43.217 C 77.301 86 86 77.301 86 66.608 V 23.392 C 86 12.699 77.301 4 66.608 4 H 23.392 z" style="stroke: none; stroke-width: 1; stroke-dasharray: none; stroke-linecap: butt; stroke-linejoin: miter; stroke-miterlimit: 10; fill: rgb(0,0,0); fill-rule: nonzero; opacity: 1;" transform=" matrix(1 0 0 1 0 0) " stroke-linecap="round" />
	<path d="M 45.258 69.263 c -3.623 0 -7.275 -0.821 -10.675 -2.512 c -0.989 -0.492 -1.392 -1.692 -0.9 -2.682 c 0.492 -0.989 1.692 -1.39 2.682 -0.9 c 7.695 3.828 16.952 2.312 23.034 -3.771 c 3.775 -3.775 5.855 -8.795 5.855 -14.134 s -2.08 -10.359 -5.855 -14.134 c -7.792 -7.792 -20.474 -7.793 -28.268 0 c -6.082 6.082 -7.597 15.339 -3.771 23.034 c 0.492 0.989 0.088 2.189 -0.901 2.682 c -0.987 0.49 -2.189 0.089 -2.681 -0.9 c -4.592 -9.236 -2.773 -20.346 4.524 -27.644 c 9.353 -9.354 24.572 -9.353 33.924 0 c 4.531 4.531 7.027 10.555 7.027 16.962 s -2.496 12.432 -7.027 16.962 C 57.614 66.839 51.479 69.263 45.258 69.263 z" style="stroke: none; stroke-width: 1; stroke-dasharray: none; stroke-linecap: butt; stroke-linejoin: miter; stroke-miterlimit: 10; fill: rgb(0,0,0); fill-rule: nonzero; opacity: 1;" transform=" matrix(1 0 0 1 0 0) " stroke-linecap="round" />
	<path d="M 45 60.769 c -8.694 0 -15.768 -7.074 -15.768 -15.769 S 36.306 29.232 45 29.232 S 60.769 36.306 60.769 45 S 53.694 60.769 45 60.769 z M 45 33.232 c -6.489 0 -11.768 5.279 -11.768 11.768 c 0 6.489 5.279 11.769 11.768 11.769 c 6.489 0 11.769 -5.279 11.769 -11.769 C 56.769 38.511 51.489 33.232 45 33.232 z" style="stroke: none; stroke-width: 1; stroke-dasharray: none; stroke-linecap: butt; stroke-linejoin: miter; stroke-miterlimit: 10; fill: rgb(0,0,0); fill-rule: nonzero; opacity: 1;" transform=" matrix(1 0 0 1 0 0) " stroke-linecap="round" />
</g>
</svg>