<svg xmlns="http://www.w3.org/2000/svg" width="256" height="256" xml:space="preserve"><g style="stroke:none;stroke-width:0;stroke-dasharray:none;stroke-linecap:butt;stroke-linejoin:miter;stroke-miterlimit:10;fill:none;fill-rule:nonzero;opacity:1"><path d="M71.291 25.636a6.405 6.405 0 0 1-6.398-6.398 6.405 6.405 0 0 1 6.398-6.397 6.405 6.405 0 0 1 6.397 6.397 6.405 6.405 0 0 1-6.397 6.398zm0-8.796a2.4 2.4 0 0 0-2.398 2.397c0 1.322 1.076 2.398 2.398 2.398s2.397-1.076 2.397-2.398a2.4 2.4 0 0 0-2.397-2.397z" style="stroke:none;stroke-width:1;stroke-dasharray:none;stroke-linecap:butt;stroke-linejoin:miter;stroke-miterlimit:10;fill:#000;fill-rule:nonzero;opacity:1" transform="matrix(2.81 0 0 2.81 1.407 1.407)"/><path d="M66.608 90H23.392C10.494 90 0 79.507 0 66.608V23.392C0 10.494 10.494 0 23.392 0h43.217C79.507 0 90 10.494 90 23.392v43.217C90 79.507 79.507 90 66.608 90zM23.392 4C12.699 4 4 12.699 4 23.392v43.217C4 77.301 12.699 86 23.392 86h43.217C77.301 86 86 77.301 86 66.608V23.392C86 12.699 77.301 4 66.608 4H23.392z" style="stroke:none;stroke-width:1;stroke-dasharray:none;stroke-linecap:butt;stroke-linejoin:miter;stroke-miterlimit:10;fill:#000;fill-rule:nonzero;opacity:1" transform="matrix(2.81 0 0 2.81 1.407 1.407)"/><path d="M45.258 69.263c-3.623 0-7.275-.821-10.675-2.512a2 2 0 1 1 1.782-3.582 19.967 19.967 0 0 0 23.034-3.771c3.775-3.775 5.855-8.795 5.855-14.134s-2.08-10.359-5.855-14.134c-7.792-7.792-20.474-7.793-28.268 0a19.972 19.972 0 0 0-3.771 23.034 2.001 2.001 0 0 1-3.582 1.782 23.972 23.972 0 0 1 4.524-27.644c9.353-9.354 24.572-9.353 33.924 0 4.531 4.531 7.027 10.555 7.027 16.962s-2.496 12.432-7.027 16.962a23.972 23.972 0 0 1-16.968 7.037z" style="stroke:none;stroke-width:1;stroke-dasharray:none;stroke-linecap:butt;stroke-linejoin:miter;stroke-miterlimit:10;fill:#000;fill-rule:nonzero;opacity:1" transform="matrix(2.81 0 0 2.81 1.407 1.407)"/><path d="M45 60.769c-8.694 0-15.768-7.074-15.768-15.769S36.306 29.232 45 29.232 60.769 36.306 60.769 45 53.694 60.769 45 60.769zm0-27.537c-6.489 0-11.768 5.279-11.768 11.768 0 6.489 5.279 11.769 11.768 11.769 6.489 0 11.769-5.279 11.769-11.769 0-6.489-5.28-11.768-11.769-11.768z" style="stroke:none;stroke-width:1;stroke-dasharray:none;stroke-linecap:butt;stroke-linejoin:miter;stroke-miterlimit:10;fill:#000;fill-rule:nonzero;opacity:1" transform="matrix(2.81 0 0 2.81 1.407 1.407)"/></g></svg>