<?xml version="1.0" standalone="no"?>
<!DOCTYPE svg PUBLIC "-//W3C//DTD SVG 20010904//EN"
 "http://www.w3.org/TR/2001/REC-SVG-20010904/DTD/svg10.dtd">
<svg class="icono" version="1.0" xmlns="http://www.w3.org/2000/svg"
 width="841.000000pt" height="960.000000pt" viewBox="0 0 841.000000 960.000000"
 preserveAspectRatio="xMidYMid meet">

<g transform="translate(0.000000,960.000000) scale(0.100000,-0.100000)"
fill="#000000" stroke="none">
<path d="M4331 9581 c-9 -16 -6 -21 20 -31 16 -7 32 -10 36 -7 9 10 -5 35 -26
46 -16 9 -22 8 -30 -8z"/>
<path d="M4280 9500 c-39 -72 -42 -81 -26 -94 17 -13 27 -128 11 -136 -9 -5
-28 25 -40 64 -4 13 -9 16 -16 9 -12 -12 -15 -40 -6 -74 9 -36 -14 -69 -36
-50 -16 13 -37 8 -37 -10 0 -12 42 -54 54 -54 19 0 31 -34 19 -55 -9 -13 -9
-21 -2 -26 6 -3 9 -17 6 -31 -6 -30 20 -44 38 -20 20 27 35 -1 28 -51 -6 -48
-25 -55 -42 -14 -7 16 -28 35 -51 46 -22 10 -42 27 -45 37 -7 20 10 59 25 59
6 0 10 11 10 24 0 19 -6 25 -30 28 -35 5 -54 -10 -40 -32 13 -20 12 -32 -6
-55 -12 -17 -16 -18 -24 -5 -7 11 -14 3 -29 -34 -12 -26 -19 -52 -16 -56 8
-13 -34 -117 -60 -149 -14 -15 -22 -31 -19 -34 3 -3 -4 -19 -17 -36 -21 -28
-21 -31 -6 -54 15 -24 15 -25 -4 -20 -21 6 -49 -12 -49 -31 0 -7 9 -22 21 -34
24 -26 22 -55 -4 -60 -15 -3 -17 1 -11 22 5 23 3 26 -21 26 -14 0 -24 -3 -21
-8 6 -11 -18 -63 -43 -91 -14 -16 -21 -37 -21 -64 0 -27 -8 -48 -25 -69 -13
-16 -29 -48 -35 -71 -6 -23 -20 -54 -31 -69 -15 -21 -17 -33 -9 -53 9 -23 7
-25 -16 -25 -21 0 -25 -4 -21 -20 3 -13 -3 -26 -18 -37 -30 -22 -105 -192
-102 -230 1 -19 -3 -28 -13 -28 -18 0 -61 -95 -65 -145 -2 -26 -8 -35 -20 -34
-9 1 -14 0 -12 -3 3 -2 -6 -16 -19 -30 -13 -14 -31 -46 -40 -71 -10 -26 -22
-51 -28 -57 -7 -5 -10 -18 -8 -28 2 -10 -8 -37 -23 -59 -18 -27 -25 -48 -21
-63 5 -18 1 -25 -13 -30 -21 -6 -145 -238 -134 -249 4 -3 2 -6 -4 -6 -16 0
-26 -32 -12 -40 8 -6 7 -14 -3 -31 -8 -13 -21 -44 -29 -69 -7 -25 -19 -49 -25
-55 -15 -13 -114 -162 -114 -172 0 -4 -15 -32 -34 -63 -43 -70 -64 -136 -48
-152 9 -9 4 -16 -17 -29 -21 -12 -36 -37 -56 -91 -29 -75 -67 -150 -93 -181
-10 -12 -15 -35 -13 -69 2 -49 1 -50 -23 -46 -21 4 -27 0 -36 -25 -5 -16 -10
-41 -10 -54 0 -39 -26 -89 -72 -139 -41 -45 -43 -49 -41 -105 1 -59 1 -59 -43
-90 -34 -25 -42 -37 -38 -53 3 -15 -3 -29 -20 -46 -15 -13 -26 -34 -26 -46 0
-12 -20 -61 -45 -108 -25 -48 -45 -95 -45 -105 0 -11 -12 -34 -27 -52 -16 -18
-27 -33 -25 -33 7 -2 -12 -42 -33 -71 -11 -16 -29 -52 -39 -80 -10 -27 -49
-110 -86 -182 -44 -87 -63 -133 -54 -133 20 0 17 -21 -3 -27 -10 -2 -28 -25
-40 -51 -12 -26 -30 -60 -40 -76 -13 -21 -15 -30 -5 -33 19 -7 14 -23 -19 -61
-18 -20 -43 -59 -56 -88 -13 -29 -30 -55 -39 -58 -10 -4 -13 -13 -8 -31 5 -18
1 -33 -13 -48 -61 -70 -119 -192 -109 -231 5 -19 11 -24 24 -19 14 6 15 4 5
-9 -7 -8 -10 -17 -8 -20 3 -3 -12 -8 -34 -12 -32 -5 -44 -13 -56 -37 -10 -18
-14 -42 -11 -57 5 -22 1 -30 -22 -43 -22 -12 -38 -41 -76 -135 -27 -65 -61
-139 -77 -163 -33 -50 -33 -54 -18 -83 10 -19 9 -20 -14 -16 -29 6 -40 -11
-71 -107 -9 -27 -26 -66 -38 -85 -12 -19 -21 -43 -19 -54 1 -10 -8 -29 -20
-42 -37 -39 -12 -53 104 -59 82 -4 97 -3 97 10 0 18 19 20 26 2 7 -18 74 -19
101 -1 20 13 27 12 60 -6 45 -24 81 -25 128 -6 30 13 39 13 75 -1 32 -13 47
-14 78 -5 20 6 41 10 46 9 5 -1 13 9 18 22 6 18 12 21 20 13 8 -8 8 -15 -1
-25 -9 -11 -8 -17 4 -27 12 -10 21 -10 46 0 23 10 123 13 402 13 340 0 375 -1
410 -18 22 -10 41 -24 44 -31 3 -8 -11 -46 -30 -86 -75 -159 -87 -186 -87
-205 0 -12 -18 -42 -39 -69 -25 -29 -50 -77 -67 -125 -18 -53 -34 -80 -48 -87
-16 -7 -22 -20 -24 -48 -3 -42 -27 -86 -66 -123 -14 -14 -26 -33 -26 -43 0
-23 -59 -146 -82 -172 -10 -11 -19 -25 -19 -30 -1 -6 -2 -15 -3 -21 0 -5 -11
-20 -23 -32 -13 -13 -23 -29 -23 -37 0 -7 -11 -30 -25 -50 l-25 -37 21 -18
c30 -24 34 -58 9 -71 -20 -11 -36 2 -25 20 3 6 -1 10 -10 10 -11 0 -37 -43
-80 -135 -68 -142 -61 -135 -138 -150 -11 -2 -19 5 -23 21 -3 13 -13 24 -20
24 -23 0 -90 37 -127 69 -32 29 -136 76 -138 63 0 -4 -4 3 -10 16 -6 17 -14
22 -28 17 -22 -7 -66 12 -100 42 -13 13 -31 23 -40 23 -9 0 -27 16 -41 36 -23
32 -28 34 -73 32 -44 -3 -51 1 -48 27 0 6 -14 20 -32 33 -17 12 -48 34 -66 48
-19 13 -41 22 -48 20 -7 -3 -24 6 -37 19 -19 19 -36 25 -66 25 -37 0 -41 2
-35 20 5 17 2 20 -24 20 -19 0 -30 -5 -29 -12 2 -7 -8 -14 -22 -16 -23 -3 -24
-2 -9 13 14 14 12 19 -21 55 -20 22 -44 40 -52 40 -8 0 -23 9 -34 21 -10 11
-26 18 -35 16 -11 -3 -35 12 -63 39 -29 27 -59 46 -82 50 -19 3 -53 21 -75 40
-37 31 -89 58 -237 125 -43 20 -65 36 -72 54 -6 15 -24 31 -48 40 -40 16 -74
53 -86 93 -5 13 -3 22 3 22 6 0 11 15 11 34 0 19 4 46 10 61 7 19 6 35 -5 62
-13 30 -14 54 -5 142 10 113 9 275 -3 287 -10 10 -9 42 2 46 5 2 4 28 -2 61
-7 40 -7 61 0 68 7 7 6 22 -2 47 -7 20 -10 39 -5 42 4 3 8 41 9 85 1 44 4 95
7 113 4 20 2 32 -5 32 -15 0 -32 36 -25 54 3 9 12 16 20 16 16 0 18 19 4 54
-6 17 -14 24 -25 20 -10 -4 -15 0 -15 10 0 9 6 16 14 16 8 0 17 8 21 18 12 27
18 198 9 215 -5 8 -6 75 -3 149 3 76 2 145 -3 161 -7 18 -6 43 2 76 9 39 9 57
-1 85 -10 27 -10 41 -1 61 11 23 9 26 -20 38 l-32 13 32 13 c36 15 37 20 22
123 -7 46 -6 76 1 95 8 20 7 42 -1 79 -11 44 -10 55 2 73 12 17 13 32 5 83 -8
44 -7 90 1 156 7 52 10 98 7 102 -3 5 -8 66 -12 137 -5 124 -6 172 -5 278 1
28 1 55 0 60 -1 39 12 227 17 235 3 5 3 10 -2 10 -4 0 -16 7 -26 15 -14 10
-16 18 -9 31 7 12 6 24 -1 36 -10 14 -8 21 9 33 15 10 20 23 18 42 -7 68 -5
154 6 220 10 56 10 76 1 87 -9 10 -9 16 -1 21 6 4 8 15 5 26 -4 10 -7 54 -7
97 0 42 -4 80 -10 83 -6 4 -5 22 3 50 7 24 11 71 10 104 -2 54 -5 63 -34 87
-18 15 -40 28 -50 30 -10 2 -18 8 -18 13 -1 16 -147 175 -160 175 -15 0 -17
-31 -8 -95 6 -43 6 -73 -1 -85 -9 -17 -6 -157 3 -167 3 -2 1 -20 -5 -40 -7
-27 -6 -39 5 -51 19 -22 27 -60 15 -64 -7 -3 -12 -50 -14 -113 -2 -61 -5 -117
-5 -125 -1 -8 0 -37 1 -65 2 -27 0 -65 -4 -82 -4 -18 -2 -56 4 -86 9 -40 10
-59 1 -74 -8 -16 -7 -24 5 -34 15 -12 14 -27 -2 -83 -5 -16 -2 -17 25 -11 25
5 31 3 31 -10 0 -22 -27 -30 -46 -14 -14 12 -15 8 -8 -37 4 -27 7 -53 7 -59 0
-5 -4 -127 -7 -270 -6 -219 -5 -267 7 -302 13 -35 13 -44 2 -60 -10 -12 -12
-34 -9 -68 3 -27 2 -61 -4 -74 -6 -18 -4 -39 6 -73 14 -44 14 -49 -2 -67 -16
-17 -16 -22 -3 -48 13 -24 13 -32 1 -55 -13 -25 -13 -28 8 -39 13 -6 25 -13
27 -15 2 -1 -7 -17 -19 -34 -20 -28 -22 -40 -17 -98 5 -45 12 -69 23 -75 14
-8 13 -11 -6 -29 -21 -20 -22 -26 -15 -132 4 -61 12 -117 18 -124 7 -9 7 -24
-1 -50 -6 -20 -11 -44 -10 -52 0 -8 -5 -44 -10 -80 -15 -91 -10 -237 10 -275
12 -23 14 -35 6 -50 -7 -11 -10 -69 -9 -139 1 -67 -2 -142 -7 -167 -7 -34 -5
-51 5 -65 8 -11 11 -30 7 -51 -5 -26 -3 -33 10 -33 22 0 20 -12 -5 -33 -11
-10 -18 -25 -15 -35 15 -47 16 -121 2 -152 -8 -20 -11 -42 -6 -55 4 -11 5 -51
3 -90 -5 -86 -5 -78 -3 -232 1 -97 5 -134 17 -152 10 -15 11 -26 5 -30 -6 -4
-11 -53 -11 -120 0 -103 2 -119 28 -176 30 -66 67 -109 88 -101 15 6 163 -71
163 -85 0 -5 12 -9 27 -9 17 0 38 -13 63 -39 26 -28 41 -36 51 -30 21 13 25
11 37 -17 7 -14 17 -22 22 -19 6 4 24 -5 41 -19 16 -14 49 -30 72 -37 29 -7
58 -27 94 -64 41 -42 65 -57 120 -75 37 -13 84 -35 103 -50 66 -52 272 -167
367 -206 23 -9 52 -27 64 -40 12 -13 26 -24 31 -24 5 0 14 -5 21 -11 31 -27
201 -109 226 -109 11 0 23 -5 26 -10 4 -6 11 -8 16 -5 5 4 13 -4 19 -17 17
-41 37 -59 88 -77 27 -10 69 -32 93 -48 62 -42 213 -125 287 -158 34 -15 62
-34 62 -41 0 -8 6 -14 14 -14 7 0 25 -9 39 -20 l25 -20 35 39 c21 23 43 65 57
106 13 38 62 150 110 249 48 100 91 191 94 203 4 11 18 29 32 37 20 14 23 20
13 37 -8 16 -7 24 4 37 8 9 29 47 45 84 17 37 58 107 91 155 56 82 59 91 54
131 -5 38 -4 42 15 42 14 0 23 8 26 23 3 12 7 34 10 48 3 14 23 46 44 70 36
39 38 46 29 75 -12 40 -3 66 21 62 28 -4 52 20 52 52 0 16 6 41 14 57 8 15 20
46 26 68 7 22 19 48 27 57 18 20 43 64 83 143 17 33 39 74 51 90 11 17 38 58
59 92 37 59 41 62 65 53 20 -7 32 -6 50 6 22 14 24 14 30 -6 7 -21 25 -21 64
0 8 4 23 3 33 -4 15 -9 25 -7 50 7 17 10 34 14 37 9 5 -8 49 -14 201 -28 53
-5 75 -6 155 -5 33 0 76 0 95 0 251 0 512 9 522 19 17 17 38 15 77 -9 30 -18
39 -19 80 -9 34 8 55 8 75 0 21 -8 37 -7 62 2 26 9 36 9 48 -1 12 -10 23 -8
62 15 42 25 47 26 56 11 15 -27 74 -22 102 8 28 30 50 33 43 5 -7 -28 19 -47
44 -32 13 8 37 10 68 6 34 -4 56 -2 78 10 30 15 31 15 36 -6 6 -21 7 -21 25
-5 24 22 32 21 32 0 0 -15 9 -18 61 -16 34 1 66 6 72 12 15 15 32 14 47 -4 9
-10 23 -14 39 -11 103 21 132 24 153 14 10 -5 37 -3 63 4 39 10 49 10 73 -4
23 -14 30 -14 46 -2 11 8 31 11 45 8 14 -3 107 -7 206 -10 338 -10 338 -10
371 9 29 16 34 16 69 2 20 -9 60 -15 88 -14 29 1 59 -2 68 -5 10 -5 20 2 30
21 18 36 30 44 45 32 8 -6 14 -5 18 6 8 21 26 19 26 -4 0 -34 25 -45 61 -27
24 12 35 13 45 5 11 -9 20 -7 38 5 22 14 24 20 16 47 -5 18 -18 42 -29 53 -23
26 -57 81 -72 119 -7 18 -17 26 -25 23 -10 -4 -14 4 -14 28 0 47 -27 95 -57
102 -22 6 -24 10 -18 41 5 26 2 40 -10 53 -10 11 -14 26 -11 38 5 15 1 21 -19
26 -20 5 -25 13 -25 36 0 17 -4 38 -9 48 -5 9 -19 39 -31 65 -21 45 -24 48
-51 42 -33 -7 -35 -3 -14 29 14 21 13 25 -9 49 -13 15 -27 37 -31 49 -16 57
-28 78 -46 78 -23 0 -24 13 -3 35 20 19 12 40 -46 120 -20 28 -58 106 -85 174
-34 87 -58 134 -82 157 -22 22 -33 43 -33 62 0 15 -16 52 -35 82 -19 30 -35
63 -35 72 0 9 -10 24 -21 32 -13 9 -19 21 -16 30 4 9 -4 28 -17 43 -32 39 -46
68 -46 96 0 13 -9 32 -21 43 -26 24 -49 67 -49 92 0 11 -14 35 -31 53 -19 20
-29 40 -26 51 4 12 -8 31 -34 56 -36 34 -39 40 -34 74 5 29 2 46 -15 73 -12
20 -35 62 -51 95 -15 32 -42 69 -59 81 -22 17 -30 31 -30 54 0 18 -3 35 -7 39
-4 3 -8 14 -9 23 -4 27 -26 73 -35 73 -5 0 -8 3 -8 8 4 26 -5 47 -37 77 -26
26 -44 60 -69 127 -41 116 -73 188 -85 188 -5 0 -14 15 -20 34 -6 19 -22 46
-35 60 -13 14 -22 26 -21 26 2 0 -22 57 -53 128 -48 107 -62 130 -89 143 -26
14 -30 19 -18 28 12 10 9 22 -14 79 -16 37 -42 84 -59 104 -17 20 -31 48 -31
62 0 14 -28 80 -62 148 -34 68 -63 129 -64 137 -1 7 -12 23 -23 35 -12 12 -21
32 -21 44 0 12 -13 37 -30 55 -16 19 -30 46 -30 60 0 14 -18 47 -41 76 -36 45
-46 52 -68 47 -14 -3 -20 -3 -13 0 20 9 -16 44 -44 44 -21 0 -57 -40 -37 -40
4 0 1 -6 -8 -13 -21 -16 -94 -157 -92 -177 1 -8 -9 -29 -23 -47 -13 -17 -24
-37 -24 -43 0 -6 -4 -8 -10 -5 -5 3 -10 -3 -10 -14 0 -11 5 -23 10 -26 11 -7
-11 -35 -27 -35 -16 0 -55 -81 -51 -104 5 -26 -11 -62 -61 -131 -28 -40 -32
-51 -23 -70 13 -29 6 -36 -24 -25 -23 9 -24 8 -24 -34 0 -33 -9 -57 -41 -107
-35 -54 -39 -66 -29 -82 9 -16 9 -21 -1 -28 -7 -4 -18 -5 -24 -2 -5 3 -5 0 2
-7 9 -10 4 -20 -22 -47 -32 -33 -49 -80 -40 -105 3 -7 -15 -51 -39 -98 -117
-229 -135 -263 -143 -269 -5 -3 -19 -31 -32 -61 -13 -30 -32 -69 -42 -86 -10
-17 -19 -39 -19 -48 0 -9 -4 -16 -9 -16 -12 0 -34 -57 -26 -69 3 -6 -3 -23
-14 -37 -16 -20 -19 -35 -15 -64 5 -29 2 -38 -10 -43 -9 -4 -16 -12 -16 -19 0
-7 -9 -19 -21 -26 -11 -7 -36 -45 -54 -85 -26 -57 -31 -75 -23 -93 9 -19 6
-27 -18 -48 -16 -14 -32 -26 -36 -26 -5 0 -8 -8 -8 -18 0 -10 -14 -44 -31 -76
-19 -34 -29 -65 -26 -78 4 -14 0 -22 -13 -25 -13 -3 -26 -26 -40 -68 -11 -34
-30 -71 -41 -81 -12 -11 -17 -24 -13 -36 3 -11 -1 -20 -11 -24 -9 -4 -13 -13
-10 -23 3 -11 -5 -27 -21 -42 -36 -33 -52 -67 -68 -144 -9 -45 -21 -71 -35
-81 -11 -8 -18 -20 -15 -27 2 -7 -7 -28 -21 -47 -14 -19 -25 -44 -25 -56 0
-11 -16 -42 -35 -67 -21 -27 -35 -57 -35 -74 0 -15 -9 -41 -21 -58 -11 -16
-29 -47 -40 -68 -18 -34 -18 -40 -4 -60 21 -30 19 -38 -11 -35 -38 4 -67 -50
-61 -115 4 -41 2 -47 -13 -42 -22 7 -34 -8 -53 -65 -23 -70 -50 -124 -68 -137
-14 -10 -29 -49 -34 -88 -2 -16 -26 -58 -56 -96 -21 -27 -25 -39 -17 -47 9 -9
8 -12 -5 -12 -9 0 -17 -4 -17 -9 0 -17 -29 -20 -55 -7 -27 14 -85 12 -94 -3
-13 -19 -47 -20 -70 -2 -24 18 -25 18 -50 0 -22 -16 -32 -17 -61 -9 -19 6 -91
10 -160 9 -69 0 -130 1 -135 2 -6 1 -26 -1 -45 -4 -30 -6 -184 -14 -405 -22
-33 -1 -71 -7 -84 -14 -19 -11 -25 -11 -32 0 -6 11 -11 11 -21 1 -18 -18 -27
-15 -38 13 -5 14 -16 25 -25 25 -12 0 -15 14 -15 71 0 66 1 71 20 66 22 -6 60
48 98 142 24 59 27 81 12 81 -5 0 -10 7 -10 15 0 8 8 15 18 15 27 0 51 22 56
52 2 15 7 32 11 38 16 26 13 50 -6 50 -27 0 -24 19 6 30 14 5 29 18 32 27 9
23 29 43 43 43 13 0 30 42 30 76 0 13 15 41 35 63 19 21 35 48 35 60 0 26 25
78 51 106 15 17 16 27 9 60 -13 54 -13 53 11 57 12 2 25 10 30 18 11 21 22 53
23 67 1 6 13 20 27 32 16 12 39 53 59 103 18 46 57 133 87 193 45 92 53 116
48 147 -5 34 -3 38 17 35 18 -2 23 5 31 43 5 24 20 58 34 74 32 38 63 100 63
126 0 11 4 20 10 20 5 0 23 30 40 68 18 37 38 71 46 75 8 4 14 21 14 37 0 29
18 66 77 154 18 26 33 58 33 70 0 12 4 26 9 31 5 6 11 21 13 35 1 14 11 31 21
38 11 9 16 21 12 32 -4 11 4 28 20 46 14 15 25 35 25 44 0 10 7 34 15 53 8 20
15 47 15 61 0 15 7 27 18 30 21 7 56 63 58 93 0 12 9 32 18 45 9 13 28 39 42
58 14 19 20 36 15 38 -19 6 -12 28 14 42 34 18 68 92 63 135 -2 22 0 35 7 35
18 0 46 35 48 61 2 13 8 34 15 47 7 12 10 31 7 41 -4 13 0 20 15 24 11 3 25
19 31 36 6 17 15 31 19 31 4 0 10 10 14 23 3 13 17 41 31 61 23 35 26 45 20
102 -4 53 -3 64 10 64 9 0 18 -7 21 -15 10 -26 22 -6 17 26 -3 19 0 35 7 39 9
6 9 13 0 30 -11 21 -11 22 19 18 26 -4 32 -1 40 24 6 15 8 28 6 28 -3 0 11 16
30 36 35 36 43 54 25 54 -15 0 -12 30 4 36 8 3 17 20 20 39 4 18 20 52 37 75
18 25 32 58 34 81 3 29 13 47 35 66 25 21 30 31 25 53 -5 21 -1 30 19 43 13 9
27 31 31 49 4 18 23 58 41 88 20 33 34 69 34 88 0 27 4 32 24 32 19 0 23 4 19
20 -3 11 -12 20 -19 20 -8 0 -14 7 -14 15 0 8 6 15 13 15 22 0 97 84 97 108 0
25 28 84 68 145 19 28 26 52 26 88 0 34 4 49 13 49 7 0 21 16 30 35 9 19 21
35 25 35 5 0 6 5 3 10 -3 6 -1 10 5 10 8 0 10 9 6 25 -4 14 -3 25 1 25 17 0
62 89 87 171 14 47 34 94 45 103 15 13 18 26 14 46 -4 23 0 31 18 40 35 18 59
51 59 84 0 16 10 44 21 63 12 19 18 37 15 41 -4 3 -9 -4 -13 -16 -11 -43 -38
-18 -35 32 4 42 17 53 65 55 23 1 51 3 62 5 11 3 30 5 41 5 20 1 21 4 13 39
-11 49 -11 52 5 52 24 0 36 -25 39 -81 3 -50 5 -54 30 -57 15 -2 27 1 27 7 0
6 7 11 15 11 8 0 15 -9 15 -20 0 -33 45 -71 75 -66 17 3 28 0 32 -10 3 -8 19
-22 35 -30 29 -15 30 -15 23 6 -6 18 -3 21 12 18 10 -2 18 -12 18 -23 0 -23
24 -55 41 -55 21 0 79 -33 117 -67 32 -29 43 -33 69 -28 29 7 30 6 26 -18 -5
-24 -1 -27 70 -46 41 -11 75 -21 76 -23 37 -61 55 -75 52 -42 0 9 5 19 13 22
10 3 12 -2 7 -21 -5 -21 -1 -29 27 -46 19 -11 53 -36 77 -55 24 -19 48 -32 52
-30 4 3 8 0 8 -6 0 -7 10 -9 28 -5 22 4 33 0 51 -19 19 -20 28 -23 43 -15 23
12 38 4 38 -21 0 -23 90 -84 160 -109 25 -9 47 -19 50 -22 3 -4 34 -24 70 -44
36 -21 92 -56 125 -78 33 -22 78 -52 101 -67 22 -15 52 -30 67 -34 14 -3 39
-18 54 -32 15 -14 35 -23 45 -21 9 3 25 -1 34 -8 10 -7 26 -10 37 -7 16 4 19
2 13 -13 -6 -16 -2 -17 29 -12 33 5 36 4 33 -16 -2 -17 12 -30 72 -68 41 -26
76 -45 78 -44 2 2 14 -7 27 -19 26 -24 192 -114 245 -133 19 -7 36 -17 38 -23
2 -5 11 -10 20 -10 10 0 23 -9 29 -19 7 -11 26 -22 43 -26 17 -4 34 -13 37
-21 4 -10 14 -6 41 16 49 40 69 40 45 0 -16 -28 -16 -33 -3 -58 21 -37 107
-84 143 -77 20 3 30 -1 39 -15 7 -11 21 -20 31 -20 10 0 30 -11 45 -25 16 -15
34 -23 44 -20 12 4 17 -1 20 -17 2 -17 21 -32 76 -58 40 -20 87 -50 103 -68
23 -24 36 -31 53 -26 18 4 28 -1 45 -24 22 -31 213 -137 225 -125 3 3 6 2 6
-4 0 -6 21 -20 48 -31 29 -13 54 -32 65 -51 21 -35 32 -151 15 -151 -6 0 -8
-14 -3 -37 12 -64 15 -148 5 -163 -6 -10 -4 -20 6 -31 11 -13 13 -22 6 -36
-13 -23 -19 -261 -12 -443 1 -25 2 -121 2 -215 -1 -217 1 -249 17 -269 12 -14
11 -19 -2 -34 -24 -26 -12 -122 14 -122 11 0 19 -7 19 -16 0 -11 -6 -15 -20
-11 -35 9 -43 -16 -36 -115 4 -51 8 -213 8 -360 1 -148 5 -268 10 -268 4 0 8
-7 8 -15 0 -8 -7 -15 -14 -15 -12 0 -15 -16 -13 -77 2 -76 12 -103 39 -103 7
0 2 -7 -11 -16 -23 -16 -23 -21 -17 -93 4 -42 7 -85 7 -96 0 -10 5 -25 10 -32
8 -9 5 -20 -10 -39 -17 -21 -21 -41 -21 -93 0 -38 5 -72 12 -79 8 -8 9 -21 0
-49 -6 -21 -9 -60 -6 -88 6 -62 5 -345 -1 -355 -3 -4 7 -36 20 -71 14 -34 25
-65 25 -67 0 -2 -11 -1 -25 2 -24 6 -25 4 -24 -36 0 -24 4 -63 8 -88 4 -25 4
-75 1 -110 -4 -36 -3 -70 2 -76 4 -6 6 -78 2 -160 -3 -82 -4 -165 -4 -184 5
-119 -10 -294 -28 -326 -6 -12 -25 -27 -42 -34 -21 -9 -29 -18 -25 -28 5 -12
3 -13 -10 -2 -13 11 -20 10 -43 -7 -15 -10 -45 -28 -67 -39 -133 -67 -265
-146 -265 -159 0 -15 -43 -35 -75 -35 -14 0 -29 -8 -35 -20 -6 -11 -34 -32
-63 -46 -29 -15 -54 -30 -57 -34 -3 -4 -20 -11 -38 -15 -17 -3 -56 -24 -85
-46 -28 -22 -73 -49 -99 -61 -26 -12 -49 -29 -52 -40 -3 -15 -10 -18 -25 -13
-12 3 -21 2 -21 -4 0 -5 -15 -14 -34 -21 -31 -10 -69 -32 -167 -97 -19 -12
-45 -23 -58 -23 -16 0 -26 -10 -37 -35 -11 -27 -20 -35 -39 -35 -22 0 -73 -24
-118 -55 -10 -7 -27 -11 -37 -8 -13 4 -33 -8 -62 -36 -45 -43 -120 -83 -177
-96 -20 -4 -51 -24 -76 -51 -26 -26 -63 -51 -95 -63 -30 -11 -56 -24 -59 -29
-3 -5 -45 -27 -92 -50 -48 -23 -124 -67 -169 -97 -46 -30 -93 -55 -107 -55
-16 0 -27 -8 -33 -24 -10 -27 -37 -45 -78 -52 -15 -3 -64 -30 -109 -61 -45
-30 -94 -57 -109 -59 -27 -3 -43 -13 -111 -77 -22 -22 -45 -37 -51 -33 -5 3
-39 -6 -75 -20 -50 -19 -68 -32 -77 -54 -8 -19 -21 -30 -41 -34 -16 -3 -52
-21 -80 -41 -28 -19 -55 -35 -59 -35 -4 0 -5 -12 -2 -27 l5 -27 -27 18 c-15
10 -29 16 -32 14 -4 -4 -12 -44 -13 -65 -2 -27 -21 -11 -21 17 l0 30 -47 -26
c-27 -15 -59 -37 -73 -50 -14 -12 -55 -37 -92 -54 -38 -18 -71 -36 -74 -41 -3
-5 -9 -7 -13 -4 -5 2 -26 -11 -49 -30 -22 -19 -46 -35 -54 -35 -8 0 -27 -13
-42 -29 -22 -23 -35 -29 -55 -25 -20 4 -39 -5 -80 -35 -30 -23 -64 -41 -75
-41 -12 0 -42 15 -69 34 -26 18 -69 43 -97 55 -27 12 -61 32 -74 46 -14 14
-31 25 -39 25 -7 0 -24 11 -37 25 -13 14 -29 25 -35 25 -6 0 -26 11 -45 25
-21 16 -41 23 -53 19 -13 -4 -20 0 -23 13 -3 10 -29 28 -62 43 -31 13 -78 44
-104 67 -33 29 -58 43 -77 43 -16 0 -34 7 -41 15 -11 13 -72 48 -74 43 -16
-47 -50 -56 -54 -15 -2 17 1 27 10 27 7 0 0 9 -16 19 -22 14 -35 17 -52 10
-20 -7 -24 -5 -24 9 0 16 -68 72 -88 72 -5 0 -12 7 -16 15 -3 8 -12 15 -20 15
-7 0 -16 7 -20 15 -3 8 -17 15 -32 15 -14 0 -44 15 -68 34 -37 31 -43 33 -52
19 -15 -23 -48 -9 -41 17 8 32 -19 24 -52 -16 -28 -35 -62 -113 -77 -177 -5
-24 -3 -29 25 -38 17 -6 36 -19 41 -29 5 -9 23 -20 41 -24 17 -3 44 -19 59
-36 17 -18 41 -32 59 -34 18 -2 40 -11 51 -21 11 -10 28 -15 40 -12 16 4 24
-1 32 -19 7 -15 20 -24 35 -24 17 0 23 -6 23 -21 0 -12 4 -17 11 -14 19 12 59
-5 93 -41 26 -27 39 -34 55 -29 15 5 33 -3 63 -28 24 -19 49 -32 56 -30 6 3
12 -1 12 -9 0 -15 136 -98 161 -98 8 0 26 -11 39 -25 25 -27 40 -25 40 6 0 22
32 26 49 6 8 -10 7 -19 -4 -33 -8 -10 -15 -24 -15 -30 0 -12 59 -40 106 -49
18 -3 36 -16 43 -28 12 -23 34 -38 148 -98 40 -21 79 -36 87 -33 9 3 19 -3 26
-16 7 -13 17 -19 26 -16 8 3 21 9 30 12 12 5 14 1 8 -20 -6 -25 -5 -26 21 -16
51 19 149 79 199 120 27 23 59 40 73 40 30 0 54 12 115 58 25 19 48 33 50 31
1 -2 22 8 45 21 42 23 55 44 32 52 -7 2 -10 10 -8 17 4 11 8 10 21 -3 30 -29
88 -10 88 29 0 11 6 12 26 5 31 -12 51 0 56 33 2 16 10 22 30 22 17 1 41 13
60 31 23 21 51 35 90 43 45 10 64 20 85 46 19 23 61 48 133 80 57 26 181 95
275 155 93 59 200 122 237 140 37 17 80 45 95 61 20 21 34 28 50 24 20 -5 36
7 39 30 0 6 2 16 2 23 1 6 5 11 10 10 37 -10 169 52 242 114 8 7 16 12 17 11
10 -10 21 0 16 13 -5 13 -2 15 13 10 15 -4 30 4 54 29 22 22 43 35 60 35 14 0
31 5 37 11 14 14 42 30 113 64 30 15 71 42 92 61 21 19 60 40 91 49 30 9 62
24 71 34 9 10 39 28 66 41 45 21 49 25 35 40 -22 24 -19 31 10 24 28 -7 95 3
94 14 -4 22 5 30 43 41 32 10 38 15 27 23 -11 7 -8 9 9 5 12 -3 29 1 37 10 8
8 26 16 39 19 41 7 93 33 99 49 4 9 1 15 -8 15 -14 0 -30 18 -23 26 3 2 19 -1
37 -7 28 -10 35 -9 54 9 18 17 26 19 41 10 15 -8 21 -8 24 0 9 27 48 66 81 79
20 9 48 24 63 34 14 11 31 19 37 19 30 0 197 95 251 144 17 14 32 26 35 26 14
0 145 72 145 80 0 5 18 14 40 20 21 6 42 15 45 20 3 6 28 19 54 31 26 11 68
40 92 65 28 29 49 42 60 39 12 -4 23 5 37 30 12 19 28 35 37 35 13 0 14 4 4
23 -16 28 -19 140 -5 149 10 6 10 95 0 373 -2 55 -3 133 -3 172 0 84 -4 97
-31 83 -13 -7 -21 -6 -29 4 -14 16 -4 26 24 26 44 0 65 61 37 110 -16 28 -16
32 -1 59 11 19 13 33 7 44 -5 10 -5 24 1 35 5 9 6 24 2 32 -13 23 -21 90 -11
90 17 0 20 57 6 135 -8 47 -10 84 -5 90 15 15 10 87 -7 106 -14 16 -14 18 5
24 20 6 20 8 6 36 -14 26 -14 31 1 54 13 21 14 30 5 53 -7 17 -9 48 -6 75 4
26 3 47 -2 47 -6 0 -7 127 -1 250 0 14 -3 57 -7 97 -6 58 -5 77 7 96 13 19 14
26 2 41 -10 14 -10 22 -1 37 9 15 9 24 -1 40 -13 21 -13 34 7 174 7 47 6 65
-6 83 -8 13 -11 31 -8 40 14 33 16 234 4 264 -9 22 -9 32 0 41 13 13 16 278 2
293 -5 5 -6 31 -1 59 12 73 12 315 1 329 -6 7 -4 29 8 63 15 44 15 55 4 75
-13 23 -17 211 -4 233 9 16 10 35 1 35 -17 0 -20 34 -4 51 9 10 14 24 11 31
-2 7 -5 15 -5 18 0 3 -8 24 -17 47 -16 39 -15 43 1 68 22 33 20 146 -3 181
-18 28 -11 89 14 117 15 15 15 19 -1 35 -14 16 -15 27 -6 72 17 88 14 97 -34
131 -43 31 -149 79 -174 79 -7 0 -26 16 -43 35 -17 19 -39 35 -49 35 -10 0
-21 6 -23 13 -4 10 -6 10 -6 0 -1 -7 -8 -13 -17 -13 -9 0 -14 7 -12 17 2 13
-10 24 -42 39 -25 11 -51 29 -59 38 -8 10 -42 30 -76 45 -62 29 -258 140 -263
150 -15 33 -21 34 -41 10 -15 -17 -20 -20 -21 -8 0 16 -34 50 -87 86 -27 19
-33 20 -43 8 -11 -13 -19 -9 -57 26 -54 50 -132 87 -143 69 -12 -19 -25 -5
-40 40 -10 30 -17 39 -30 35 -10 -3 -26 5 -40 20 -13 14 -27 25 -32 25 -5 0
-26 11 -48 25 -22 14 -49 25 -59 25 -11 0 -25 8 -30 18 -5 10 -32 30 -58 43
-26 13 -60 35 -75 47 -14 13 -34 22 -44 20 -11 -2 -26 3 -34 10 -36 32 -169
110 -215 127 -27 10 -70 37 -95 61 -40 38 -282 174 -309 174 -11 0 -113 62
-177 109 -22 16 -60 35 -84 42 -25 8 -51 24 -63 41 -25 33 -33 35 -40 7 -4
-15 -12 -20 -29 -17 -19 2 -23 9 -23 36 0 29 -6 36 -47 59 -51 28 -78 25 -78
-7 0 -17 -5 -21 -27 -18 -35 4 -43 34 -11 44 22 7 21 8 -17 41 -61 53 -203
143 -226 143 -11 0 -22 7 -25 15 -4 8 -13 15 -21 15 -17 0 -140 67 -149 81 -3
5 -11 9 -17 9 -9 0 -9 -2 0 -8 6 -4 13 -21 16 -39 3 -17 8 -36 11 -42 9 -13
-15 -51 -32 -51 -7 0 -12 8 -10 18 1 9 -1 23 -5 29 -5 7 -11 32 -15 55 -6 37
-11 43 -34 45 -25 2 -26 0 -25 -45 2 -36 -2 -47 -15 -50 -13 -3 -16 5 -16 45
0 65 5 80 30 86 18 5 19 8 8 22 -7 9 -21 13 -31 10 -11 -4 -21 1 -27 11 -6 11
-11 13 -16 5 -4 -6 -16 -11 -28 -11 -15 0 -19 5 -15 20 4 17 -5 26 -54 50 -55
27 -77 28 -45 1 17 -14 15 -73 -2 -79 -6 -2 -12 3 -12 11 0 8 -7 17 -15 21
-17 6 -21 62 -4 68 17 6 -89 85 -159 118 -35 16 -65 30 -67 30 -2 0 -5 -10 -7
-22 -2 -13 -10 -23 -18 -23 -11 0 -15 11 -15 40 0 30 -4 41 -17 43 -12 2 -18
-3 -18 -17 0 -22 -42 -41 -48 -22 -2 6 -14 11 -27 11 -14 0 -25 7 -27 18 -3
12 -11 4 -28 -28z m50 -17 c27 -23 26 -28 -12 -51 -46 -30 -60 -14 -38 42 11
30 22 32 50 9z m100 -38 c0 -8 -7 -15 -15 -15 -8 0 -15 7 -15 15 0 8 7 15 15
15 8 0 15 -7 15 -15z m116 4 c8 -14 -11 -33 -25 -25 -11 7 -4 36 9 36 5 0 12
-5 16 -11z m17 -74 c-5 -60 -17 -105 -26 -102 -12 4 -20 73 -12 105 7 29 41
26 38 -3z m-223 -39 c0 -7 9 -16 20 -19 11 -3 20 -10 20 -16 0 -17 -24 -13
-41 7 -27 32 -31 42 -15 42 9 0 16 -6 16 -14z m117 -33 c1 -34 -3 -45 -18 -53
-27 -15 -39 -4 -39 35 0 49 9 67 34 63 17 -2 21 -11 23 -45z m153 -18 c0 -27
-9 -32 -28 -13 -18 18 -14 38 8 38 15 0 20 -7 20 -25z m-266 -21 c9 -22 8 -24
-9 -24 -8 0 -15 9 -15 20 0 24 15 27 24 4z m164 -34 c0 -40 -19 -67 -38 -55
-22 14 -2 95 24 95 11 0 15 -11 14 -40z m372 5 c0 -8 -7 -15 -15 -15 -16 0
-20 12 -8 23 11 12 23 8 23 -8z m-140 -12 c0 -26 -16 -47 -29 -39 -12 8 -15
39 -4 49 13 13 33 7 33 -10z m-398 -48 c4 -37 -10 -50 -44 -39 -12 3 -17 11
-14 21 3 8 6 23 6 34 0 13 7 19 24 19 20 0 25 -6 28 -35z m464 22 c8 -21 -14
-67 -32 -67 -10 0 -14 5 -10 15 3 8 1 15 -4 15 -14 0 -12 24 2 38 16 16 37 15
44 -1z m-366 -17 c0 -11 -7 -20 -15 -20 -15 0 -21 21 -8 33 12 13 23 7 23 -13z
m437 12 c13 -8 12 -83 -2 -114 -9 -22 -34 -23 -42 -2 -7 18 15 124 25 124 4 0
12 -4 19 -8z m-227 -28 c0 -33 -33 -30 -38 4 -3 17 2 22 17 22 16 0 21 -6 21
-26z m-372 -60 c-5 -28 -28 -29 -28 -1 0 13 3 27 7 31 10 10 25 -10 21 -30z
m40 -58 c3 -12 -1 -17 -10 -14 -7 3 -15 13 -16 22 -3 12 1 17 10 14 7 -3 15
-13 16 -22z m645 -1 c7 -16 -8 -29 -23 -20 -15 9 -12 35 4 35 8 0 16 -7 19
-15z m-828 -64 c3 -11 17 -27 31 -36 31 -20 29 -56 -3 -70 -13 -5 -23 -14 -23
-20 0 -12 -40 -48 -46 -42 -7 7 14 57 24 57 5 0 14 11 20 25 15 32 15 46 1 23
-12 -22 -55 -24 -63 -3 -3 8 -15 15 -26 15 -22 0 -25 7 -10 30 8 12 13 13 30
2 17 -11 20 -10 20 6 0 36 34 45 45 13z m873 -11 c-2 -6 -8 -6 -18 0 -13 9
-13 11 0 20 15 10 25 0 18 -20z m82 -25 c0 -8 -4 -15 -9 -15 -13 0 -22 16 -14
24 11 11 23 6 23 -9z m-1040 -65 c0 -20 -5 -30 -15 -30 -21 0 -30 27 -15 45
19 23 30 18 30 -15z m1500 -111 c0 -5 -6 -9 -14 -9 -8 0 -16 -4 -18 -9 -5 -12
-48 -24 -48 -13 0 12 62 51 73 45 4 -2 7 -8 7 -14z m-1362 -7 c3 -9 -3 -13
-19 -10 -12 1 -24 9 -27 16 -3 9 3 13 19 10 12 -1 24 -9 27 -16z m1232 -27 c0
-30 -15 -33 -30 -6 -14 27 -13 31 10 31 15 0 20 -7 20 -25z m100 -23 c0 -4 -5
-13 -12 -20 -18 -18 -28 -15 -28 8 0 13 7 20 20 20 11 0 20 -4 20 -8z m260
-32 c0 -19 -5 -30 -14 -30 -20 0 -29 16 -21 40 10 32 35 25 35 -10z m158 -128
c2 -7 -4 -15 -13 -18 -20 -8 -27 -1 -19 20 7 18 25 17 32 -2z m-2008 -17 c0
-8 -7 -15 -15 -15 -16 0 -20 12 -8 23 11 12 23 8 23 -8z m2183 -30 c8 -18 -11
-31 -25 -17 -11 11 -3 32 12 32 4 0 10 -7 13 -15z m-2289 -23 c2 -4 1 -14 -4
-22 -7 -11 -12 -12 -21 -3 -6 6 -8 16 -5 22 8 13 23 14 30 3z m2226 -13 c0
-11 -27 -12 -34 0 -3 4 -3 11 0 14 8 8 34 -3 34 -14z m-2134 -10 c7 -12 -12
-29 -33 -29 -28 0 -11 36 19 39 4 1 10 -4 14 -10z m-76 -24 c0 -8 -7 -15 -15
-15 -16 0 -20 12 -8 23 11 12 23 8 23 -8z m2466 -36 c9 -15 -11 -33 -30 -26
-9 4 -13 13 -10 22 7 17 30 20 40 4z m-222 -14 c4 -10 -1 -15 -14 -15 -11 0
-20 7 -20 15 0 8 6 15 14 15 8 0 16 -7 20 -15z m-2414 -305 c0 -11 -6 -20 -14
-20 -21 0 -31 21 -15 31 22 14 29 11 29 -11z m122 -73 c9 -8 13 -18 9 -25 -11
-18 -41 -4 -41 19 0 22 8 23 32 6z m3556 -318 c-2 -6 -8 -10 -13 -10 -5 0 -11
4 -13 10 -2 6 4 11 13 11 9 0 15 -5 13 -11z m332 -64 c0 -8 -7 -15 -15 -15
-16 0 -20 12 -8 23 11 12 23 8 23 -8z m76 -132 c-10 -10 -19 5 -10 18 6 11 8
11 12 0 2 -7 1 -15 -2 -18z m214 -48 c0 -8 -4 -15 -10 -15 -5 0 -10 -7 -10
-15 0 -8 -9 -19 -19 -25 -47 -25 -57 0 -11 27 17 9 30 23 30 30 0 7 5 13 10
13 6 0 10 -7 10 -15z m-3052 -88 c2 -12 -3 -17 -17 -17 -23 0 -24 1 -15 25 8
19 28 15 32 -8z m2932 8 c0 -8 -7 -15 -15 -15 -16 0 -20 12 -8 23 11 12 23 8
23 -8z m88 -7 c-6 -18 -28 -21 -28 -4 0 9 7 16 16 16 9 0 14 -5 12 -12z m122
-27 c0 -12 -20 -25 -27 -18 -7 7 6 27 18 27 5 0 9 -4 9 -9z m-4570 -96 c0 -8
-7 -15 -15 -15 -8 0 -15 7 -15 15 0 8 7 15 15 15 8 0 15 -7 15 -15z m-3375
-45 c10 -16 -15 -92 -28 -87 -12 4 -14 54 -3 82 6 17 22 20 31 5z m8133 -28
c2 -14 -2 -22 -12 -22 -19 0 -29 17 -22 36 8 22 30 12 34 -14z m-118 -12 c0
-12 -28 -25 -36 -17 -9 9 6 27 22 27 8 0 14 -5 14 -10z m-7926 -65 c3 -9 0
-15 -9 -15 -16 0 -27 14 -18 24 10 10 21 7 27 -9z m-76 -26 c-2 -6 -8 -10 -13
-10 -5 0 -11 4 -13 10 -2 6 4 11 13 11 9 0 15 -5 13 -11z m3116 -4 c-4 -8 -12
-15 -20 -15 -8 0 -14 7 -14 15 0 8 9 15 20 15 13 0 18 -5 14 -15z m-16 -67
c-6 -18 -28 -21 -28 -4 0 9 7 16 16 16 9 0 14 -5 12 -12z m1841 3 c13 -8 8
-31 -7 -31 -17 1 -34 19 -28 29 9 13 16 14 35 2z m-329 -17 c0 -17 -22 -14
-28 4 -2 7 3 12 12 12 9 0 16 -7 16 -16z m3490 -5 c0 -5 -7 -9 -15 -9 -15 0
-20 12 -9 23 8 8 24 -1 24 -14z m-5095 -49 c0 -22 -29 -18 -33 3 -3 14 1 18
15 15 10 -2 18 -10 18 -18z m-2895 -10 c0 -5 -7 -10 -16 -10 -8 0 -12 5 -9 10
3 6 10 10 16 10 5 0 9 -4 9 -10z m4700 -47 c0 -25 0 -26 -20 -8 -11 10 -20 22
-20 27 0 4 9 8 20 8 15 0 20 -7 20 -27z m-1740 -8 c0 -8 -7 -15 -15 -15 -8 0
-15 7 -15 15 0 8 7 15 15 15 8 0 15 -7 15 -15z m5075 -26 c-8 -12 -35 -12 -35
0 0 11 22 20 33 14 4 -2 5 -9 2 -14z m-8037 -8 c3 -8 -1 -12 -9 -9 -7 2 -15
10 -17 17 -3 8 1 12 9 9 7 -2 15 -10 17 -17z m2892 3 c0 -9 -5 -14 -12 -12
-18 6 -21 28 -4 28 9 0 16 -7 16 -16z m1880 -64 c9 -22 19 -30 37 -30 19 0 23
-4 18 -19 -3 -11 -1 -22 5 -26 7 -4 9 -19 5 -35 -10 -45 18 -90 56 -90 29 0
30 -1 23 -35 -5 -27 0 -45 25 -88 17 -30 31 -65 31 -79 0 -16 10 -30 30 -41
24 -15 30 -25 30 -53 0 -40 11 -64 52 -114 20 -24 28 -46 28 -72 0 -32 5 -41
34 -60 29 -19 33 -27 29 -53 -3 -21 4 -46 26 -85 64 -115 110 -209 141 -288
17 -45 38 -89 46 -97 9 -8 13 -15 9 -15 -13 0 30 -60 46 -65 14 -5 16 -13 12
-40 -4 -23 -2 -35 6 -35 6 0 11 -9 11 -20 0 -11 7 -23 15 -26 8 -4 15 -15 15
-25 0 -10 12 -33 28 -51 54 -64 54 -65 42 -88 -10 -19 -8 -26 14 -49 14 -15
26 -34 26 -42 0 -9 9 -24 20 -34 11 -10 20 -23 20 -29 0 -7 9 -28 19 -49 10
-20 21 -47 25 -60 3 -13 17 -40 31 -61 24 -36 33 -60 34 -98 1 -10 7 -18 14
-18 17 0 37 -35 32 -58 -3 -17 0 -19 31 -12 l35 8 -16 -24 c-14 -22 -14 -27 5
-64 11 -22 29 -46 40 -52 15 -9 20 -24 20 -53 0 -31 11 -56 50 -113 28 -41 53
-86 56 -100 4 -15 19 -51 35 -79 16 -29 29 -68 29 -87 0 -28 4 -35 25 -40 19
-5 25 -13 26 -34 1 -34 5 -59 15 -80 4 -9 8 -20 8 -23 1 -4 20 -33 44 -64 29
-40 42 -67 42 -90 0 -25 17 -57 66 -126 58 -80 65 -95 55 -111 -10 -17 -9 -22
6 -33 27 -20 11 -28 -65 -29 -66 -1 -70 -2 -95 -35 l-27 -34 -10 29 -10 29
-238 -2 c-298 -3 -285 -3 -362 -2 -36 1 -83 1 -105 -1 -22 -1 -61 1 -88 5 -26
4 -53 3 -60 -2 -7 -5 -68 -7 -137 -5 -69 3 -211 6 -317 7 -159 2 -191 0 -186
-11 6 -17 -2 -18 -27 -4 -28 15 -88 24 -157 24 -35 0 -63 4 -63 9 0 5 -8 6
-17 2 -10 -4 -73 -9 -141 -11 -74 -2 -129 -8 -137 -14 -11 -9 -20 -7 -41 9
-29 23 -50 27 -56 10 -4 -12 -266 -19 -270 -7 -3 7 -72 -13 -83 -24 -8 -8 -45
2 -45 12 0 5 -28 6 -62 4 -99 -6 -161 -4 -193 6 -16 4 -59 11 -93 13 -35 3
-68 9 -73 14 -6 6 -2 31 10 66 17 48 18 57 5 68 -16 13 -18 28 -4 49 9 13 12
12 25 -4 19 -26 26 -18 60 74 16 41 35 82 42 91 7 9 10 19 6 22 -3 4 -1 7 5 7
6 0 9 6 6 14 -3 7 1 16 9 19 10 3 13 14 10 31 -3 16 -1 26 6 26 7 0 18 15 26
34 8 18 26 48 41 66 24 28 27 39 25 96 -2 51 1 63 12 58 18 -7 26 5 78 116 24
52 47 97 51 100 4 3 5 18 3 32 -3 17 0 28 10 32 8 3 15 17 15 30 0 14 7 31 15
38 40 33 45 42 45 73 0 21 9 44 25 63 14 17 25 37 25 45 0 9 25 68 56 133 30
65 65 149 77 187 14 45 30 75 44 84 19 12 23 24 23 64 0 26 4 51 10 54 24 15
73 101 75 131 1 18 11 47 23 66 30 48 70 141 103 238 16 46 43 101 59 122 18
22 30 48 30 67 0 16 4 32 9 36 14 8 57 124 60 159 1 5 4 6 8 3 3 -4 17 11 29
34 22 37 22 42 8 64 -15 23 -14 24 11 27 22 2 31 14 56 73 16 38 29 80 29 92
0 13 5 22 13 21 7 -2 13 11 15 32 2 22 14 46 34 66 16 18 25 33 20 35 -6 3 -6
13 1 29 5 14 9 34 8 45 0 12 12 30 33 45 27 20 35 33 39 69 3 26 11 48 21 53
9 5 13 14 10 20 -4 6 -3 8 3 5 6 -4 21 5 33 18 31 33 45 31 60 -5z m3195 -8
c0 -18 -20 -15 -23 4 -3 10 1 15 10 12 7 -3 13 -10 13 -16z m-5026 -46 c9 -10
8 -16 -4 -26 -20 -16 -38 -1 -29 23 8 21 18 22 33 3z m5041 -11 c0 -8 -7 -15
-15 -15 -16 0 -20 12 -8 23 11 12 23 8 23 -8z m-5240 -25 c0 -11 -7 -20 -15
-20 -15 0 -21 21 -8 33 12 13 23 7 23 -13z m-2909 -5 c1 -17 -18 -17 -25 0 -4
11 -1 15 10 13 8 -2 15 -7 15 -13z m4569 -20 c0 -8 -4 -15 -10 -15 -5 0 -10 7
-10 15 0 8 5 15 10 15 6 0 10 -7 10 -15z m-1592 -22 c-5 -26 -38 -29 -38 -4 0
15 6 21 21 21 14 0 19 -5 17 -17z m-154 -179 c8 -22 8 -24 -8 -24 -18 0 -29
16 -21 30 9 15 22 12 29 -6z m-2744 -10 c0 -17 -22 -14 -28 4 -2 7 3 12 12 12
9 0 16 -7 16 -16z m-20 -72 c0 -5 -9 -17 -20 -27 -19 -18 -20 -17 -20 3 0 18
11 29 33 31 4 1 7 -3 7 -7z m8140 -6 c0 -8 -7 -16 -15 -20 -10 -4 -15 1 -15
14 0 11 7 20 15 20 8 0 15 -6 15 -14z m-8004 -7 c10 -17 -13 -36 -27 -22 -12
12 -4 33 11 33 5 0 12 -5 16 -11z m2811 -15 c-3 -3 -12 -4 -19 -1 -8 3 -5 6 6
6 11 1 17 -2 13 -5z m-2919 -16 c-6 -18 -28 -21 -28 -4 0 9 7 16 16 16 9 0 14
-5 12 -12z m8120 -21 c2 -12 -3 -17 -17 -17 -12 0 -21 6 -21 13 0 31 32 34 38
4z m-8170 -86 c3 -8 -1 -12 -9 -9 -7 2 -15 10 -17 17 -3 8 1 12 9 9 7 -2 15
-10 17 -17z m110 -43 c-6 -18 -28 -21 -28 -4 0 9 7 16 16 16 9 0 14 -5 12 -12z
m-58 -84 c0 -8 -4 -12 -10 -9 -5 3 -10 10 -10 16 0 5 5 9 10 9 6 0 10 -7 10
-16z m4315 -22 c0 -18 -20 -15 -23 4 -3 10 1 15 10 12 7 -3 13 -10 13 -16z
m-4317 -44 c-4 -29 -38 -38 -38 -10 0 19 11 29 33 31 5 1 7 -9 5 -21z m8072
-7 c0 -12 -29 -35 -36 -28 -11 10 5 37 21 37 8 0 15 -4 15 -9z m-5530 -87 c0
-9 -5 -14 -12 -12 -18 6 -21 28 -4 28 9 0 16 -7 16 -16z m5570 -45 c0 -5 -7
-9 -15 -9 -15 0 -20 12 -9 23 8 8 24 -1 24 -14z m-5416 -8 c9 -13 -19 -32 -38
-25 -25 10 -19 34 8 34 14 0 27 -4 30 -9z m5316 -22 c0 -24 -23 -21 -28 4 -2
10 3 17 12 17 10 0 16 -9 16 -21z m117 -23 c-4 -13 -47 -21 -47 -9 0 5 5 14
11 20 14 14 41 5 36 -11z m-8151 -89 c3 -21 -23 -34 -38 -19 -15 15 -1 44 19
40 9 -2 17 -11 19 -21z m8138 -83 c8 -22 8 -24 -8 -24 -18 0 -29 16 -21 30 9
15 22 12 29 -6z m-5614 -43 c0 -13 -26 -32 -33 -24 -14 13 -6 33 13 33 11 0
20 -4 20 -9z m1644 -16 c-7 -17 -20 -20 -28 -6 -7 10 3 21 20 21 8 0 11 -6 8
-15z m3966 -119 c0 -16 -18 -31 -27 -22 -8 8 5 36 17 36 5 0 10 -6 10 -14z
m-5666 -11 c3 -9 0 -15 -9 -15 -8 0 -15 7 -15 15 0 8 4 15 9 15 5 0 11 -7 15
-15z m3094 -7 c-7 -19 -38 -22 -38 -4 0 10 9 16 21 16 12 0 19 -5 17 -12z
m-3188 -22 c0 -18 -27 -29 -36 -14 -4 5 0 14 7 19 20 13 29 11 29 -5z m3428
-68 c-6 -18 -28 -21 -28 -4 0 9 7 16 16 16 9 0 14 -5 12 -12z m-5850 -10 c-6
-18 -28 -21 -28 -4 0 9 7 16 16 16 9 0 14 -5 12 -12z m5860 -29 c-2 -6 -8 -10
-13 -10 -5 0 -11 4 -13 10 -2 6 4 11 13 11 9 0 15 -5 13 -11z m-3498 -9 c0 -5
-7 -10 -15 -10 -8 0 -15 5 -15 10 0 6 7 10 15 10 8 0 15 -4 15 -10z m5860 1
c0 -5 -7 -11 -15 -15 -9 -3 -15 0 -15 9 0 8 7 15 15 15 8 0 15 -4 15 -9z
m-2449 -52 c-2 -8 -3 -24 -3 -36 1 -17 -4 -23 -19 -23 -17 0 -20 4 -15 23 3
12 6 30 6 40 0 12 6 17 18 15 9 -2 15 -11 13 -19z m2337 -43 c-2 -11 -11 -22
-20 -24 -14 -3 -18 3 -18 26 0 16 3 32 7 35 11 12 34 -15 31 -37z m157 -17
c10 -16 -1 -22 -26 -14 -17 6 -19 9 -8 16 19 12 26 11 34 -2z m15 -60 c0 -5
-7 -9 -15 -9 -15 0 -20 12 -9 23 8 8 24 -1 24 -14z m-62 -59 c10 -17 10 -21
-4 -27 -16 -6 -34 11 -34 35 0 19 24 14 38 -8z m-2358 -24 c0 -3 -4 -8 -10
-11 -5 -3 -10 -1 -10 4 0 6 5 11 10 11 6 0 10 -2 10 -4z m2310 -91 c0 -41 -17
-45 -43 -10 -21 30 -15 45 19 45 21 0 24 -5 24 -35z m59 9 c-9 -11 -15 -12
-23 -4 -8 8 -7 13 4 20 20 12 33 1 19 -16z m-4369 -84 c0 -5 -7 -10 -15 -10
-8 0 -15 5 -15 10 0 6 7 10 15 10 8 0 15 -4 15 -10z m4373 -57 c3 -16 0 -34
-7 -41 -18 -18 -50 19 -41 47 10 31 42 27 48 -6z m-6082 -36 c-13 -13 -26 -3
-16 12 3 6 11 8 17 5 6 -4 6 -10 -1 -17z m-111 -22 c0 -8 -4 -15 -9 -15 -13 0
-22 16 -14 24 11 11 23 6 23 -9z m1520 -140 c0 -8 -7 -15 -15 -15 -26 0 -18
20 13 29 1 1 2 -6 2 -14z m-1660 -241 c0 -17 -22 -14 -28 4 -2 7 3 12 12 12 9
0 16 -7 16 -16z m84 -89 c-4 -8 -10 -12 -15 -9 -14 8 -10 24 6 24 9 0 12 -6 9
-15z m-1852 -282 c21 -19 24 -56 6 -71 -50 -39 -89 -9 -68 53 13 39 33 44 62
18z m1618 -81 c0 -13 -12 -22 -22 -16 -10 6 -1 24 13 24 5 0 9 -4 9 -8z m-112
-184 c-7 -19 -35 -21 -41 -3 -5 11 0 15 19 15 16 0 24 -5 22 -12z m114 -73 c0
-5 -5 -11 -11 -13 -6 -2 -11 4 -11 13 0 9 5 15 11 13 6 -2 11 -8 11 -13z m-60
-50 c0 -5 -5 -11 -11 -13 -6 -2 -11 4 -11 13 0 9 5 15 11 13 6 -2 11 -8 11
-13z m5088 -4 c0 -12 -20 -25 -27 -18 -7 7 6 27 18 27 5 0 9 -4 9 -9z m-3512
-89 c2 -7 -6 -12 -17 -12 -21 0 -27 11 -14 24 9 9 26 2 31 -12z m-1648 -7 c0
-8 -7 -15 -15 -15 -8 0 -15 7 -15 15 0 8 7 15 15 15 8 0 15 -7 15 -15z m1720
-24 c0 -11 -10 -27 -22 -36 -22 -15 -23 -14 -26 5 -5 32 5 50 28 50 13 0 20
-7 20 -19z m3246 -85 c8 -8 14 -19 14 -25 0 -12 -40 -15 -41 -3 0 4 -2 15 -4
25 -4 21 11 22 31 3z m274 -10 c0 -18 -30 -30 -43 -17 -5 5 -6 14 -3 20 10 16
46 13 46 -3z m-3715 -17 c0 -7 -8 -15 -17 -17 -18 -3 -25 18 -11 32 10 10 28
1 28 -15z m3583 -2 c3 -12 -4 -17 -22 -17 -28 0 -33 9 -14 28 15 15 32 10 36
-11z m-3708 -12 c0 -8 -7 -15 -15 -15 -8 0 -15 7 -15 15 0 8 7 15 15 15 8 0
15 -7 15 -15z m-1520 -20 c0 -8 -4 -15 -10 -15 -5 0 -10 7 -10 15 0 8 5 15 10
15 6 0 10 -7 10 -15z m2488 -7 c-6 -18 -28 -21 -28 -4 0 9 7 16 16 16 9 0 14
-5 12 -12z m2422 -3 c0 -8 -7 -15 -15 -15 -8 0 -15 7 -15 15 0 8 7 15 15 15 8
0 15 -7 15 -15z m-2540 -16 c0 -5 -7 -9 -15 -9 -8 0 -15 7 -15 15 0 9 6 12 15
9 8 -4 15 -10 15 -15z m-1930 -16 c0 -20 -24 -11 -28 10 -2 12 1 15 12 11 9
-3 16 -13 16 -21z m947 -39 c-9 -9 -28 6 -21 18 4 6 10 6 17 -1 6 -6 8 -13 4
-17z m-293 -5 c-3 -5 -10 -7 -15 -3 -5 3 -7 10 -3 15 3 5 10 7 15 3 5 -3 7
-10 3 -15z m984 -20 c-1 -13 -11 -25 -20 -27 -14 -3 -18 3 -18 26 0 30 17 46
33 32 5 -4 7 -18 5 -31z m1412 26 c0 -8 -6 -15 -14 -15 -17 0 -28 14 -19 24
12 12 33 6 33 -9z m1305 -35 c3 -5 -1 -10 -9 -10 -9 0 -16 5 -16 10 0 6 4 10
9 10 6 0 13 -4 16 -10z m125 -27 c0 -24 -25 -9 -28 17 -3 21 -2 22 12 11 9 -7
16 -20 16 -28z m-4786 12 c-4 -8 -10 -15 -15 -15 -5 0 -9 7 -9 15 0 8 7 15 15
15 9 0 12 -6 9 -15z m5163 -9 c-6 -17 -47 -20 -47 -3 0 9 6 17 13 20 18 6 38
-4 34 -17z m115 9 c0 -5 -5 -11 -11 -13 -6 -2 -11 4 -11 13 0 9 5 15 11 13 6
-2 11 -8 11 -13z m-5392 -4 c0 -12 -29 -35 -36 -28 -11 10 5 37 21 37 8 0 15
-4 15 -9z m-85 -71 c0 -22 -29 -18 -33 3 -3 14 1 18 15 15 10 -2 18 -10 18
-18z m3985 5 c0 -8 -7 -15 -15 -15 -16 0 -20 12 -8 23 11 12 23 8 23 -8z
m-5370 -5 c0 -5 -7 -10 -15 -10 -8 0 -15 5 -15 10 0 6 7 10 15 10 8 0 15 -4
15 -10z m1935 -19 c7 -12 -12 -24 -25 -16 -11 7 -4 25 10 25 5 0 11 -4 15 -9z
m363 -29 c2 -7 -3 -12 -12 -12 -9 0 -16 7 -16 16 0 17 22 14 28 -4z m1660 -19
c-4 -22 -22 -20 -26 1 -2 10 3 16 13 16 10 0 15 -7 13 -17z m4269 -99 c-9 -9
-28 6 -21 18 4 6 10 6 17 -1 6 -6 8 -13 4 -17z m-8207 0 c0 -17 -22 -14 -28 4
-2 7 3 12 12 12 9 0 16 -7 16 -16z m50 -59 c0 -8 -7 -15 -15 -15 -16 0 -20 12
-8 23 11 12 23 8 23 -8z m2770 0 c0 -8 -4 -15 -10 -15 -5 0 -10 7 -10 15 0 8
5 15 10 15 6 0 10 -7 10 -15z m-2900 -16 c0 -5 -7 -9 -15 -9 -9 0 -12 6 -9 15
6 15 24 11 24 -6z m112 -91 c-15 -15 -26 -4 -18 18 5 13 9 15 18 6 9 -9 9 -15
0 -24z m2925 6 c-9 -9 -28 6 -21 18 4 6 10 6 17 -1 6 -6 8 -13 4 -17z m-2999
5 c-2 -6 -8 -10 -13 -10 -5 0 -11 4 -13 10 -2 6 4 11 13 11 9 0 15 -5 13 -11z
m22 -99 c0 -4 -6 -13 -14 -19 -18 -15 -41 10 -25 26 12 12 39 7 39 -7z m2770
-45 c0 -8 -9 -15 -20 -15 -20 0 -26 11 -13 23 12 13 33 7 33 -8z m-60 -44 c0
-5 -7 -11 -15 -15 -9 -3 -15 0 -15 9 0 8 7 15 15 15 8 0 15 -4 15 -9z m5368
-152 c-2 -6 -8 -10 -13 -10 -5 0 -11 4 -13 10 -2 6 4 11 13 11 9 0 15 -5 13
-11z m-7868 -93 c0 -8 -5 -18 -11 -22 -14 -8 -33 11 -25 25 10 16 36 13 36 -3z
m2480 2 c0 -7 -5 -20 -10 -28 -12 -20 -33 0 -24 23 7 20 34 23 34 5z m-148
-43 c0 -5 -5 -11 -11 -13 -6 -2 -11 4 -11 13 0 9 5 15 11 13 6 -2 11 -8 11
-13z m5198 -6 c0 -11 -28 -24 -36 -17 -2 3 -2 12 2 21 6 16 34 12 34 -4z
m-7410 -54 c0 -8 -7 -15 -15 -15 -8 0 -15 7 -15 15 0 8 7 15 15 15 8 0 15 -7
15 -15z m7400 -1 c0 -17 -22 -14 -28 4 -2 7 3 12 12 12 9 0 16 -7 16 -16z
m138 -3 c3 -8 -1 -12 -9 -9 -7 2 -15 10 -17 17 -3 8 1 12 9 9 7 -2 15 -10 17
-17z m-7320 -43 c-6 -18 -28 -21 -28 -4 0 9 7 16 16 16 9 0 14 -5 12 -12z
m1992 -13 c0 -8 -4 -15 -9 -15 -13 0 -22 16 -14 24 11 11 23 6 23 -9z m-1896
-26 c-3 -5 -10 -7 -15 -3 -5 3 -7 10 -3 15 3 5 10 7 15 3 5 -3 7 -10 3 -15z
m1876 -14 c0 -8 -7 -15 -15 -15 -8 0 -15 7 -15 15 0 8 7 15 15 15 8 0 15 -7
15 -15z m-30 -60 c0 -8 -7 -15 -15 -15 -8 0 -15 7 -15 15 0 8 7 15 15 15 8 0
15 -7 15 -15z m-1830 -55 c0 -5 -5 -10 -11 -10 -5 0 -7 5 -4 10 3 6 8 10 11
10 2 0 4 -4 4 -10z m1998 -11 c-2 -6 -8 -10 -13 -10 -5 0 -11 4 -13 10 -2 6 4
11 13 11 9 0 15 -5 13 -11z m-1758 -23 c0 -3 -4 -8 -10 -11 -5 -3 -10 -1 -10
4 0 6 5 11 10 11 6 0 10 -2 10 -4z m-158 -31 c0 -5 -5 -11 -11 -13 -6 -2 -11
4 -11 13 0 9 5 15 11 13 6 -2 11 -8 11 -13z m188 -5 c0 -5 -7 -10 -15 -10 -8
0 -15 5 -15 10 0 6 7 10 15 10 8 0 15 -4 15 -10z m6490 -6 c0 -17 -22 -14 -28
4 -2 7 3 12 12 12 9 0 16 -7 16 -16z m-4990 -39 c0 -8 -9 -15 -20 -15 -11 0
-20 7 -20 15 0 8 9 15 20 15 11 0 20 -7 20 -15z m120 -16 c0 -5 -7 -9 -15 -9
-15 0 -20 12 -9 23 8 8 24 -1 24 -14z m-1657 -29 c4 -17 2 -18 -14 -9 -22 11
-25 29 -5 29 7 0 16 -9 19 -20z m6417 5 c0 -8 -7 -15 -15 -15 -8 0 -15 7 -15
15 0 8 7 15 15 15 8 0 15 -7 15 -15z m-380 -30 c0 -8 -7 -15 -15 -15 -8 0 -15
7 -15 15 0 8 7 15 15 15 8 0 15 -7 15 -15z m-5685 -45 c0 -13 -6 -25 -13 -28
-16 -5 -33 40 -18 50 18 12 31 3 31 -22z m-219 -31 c3 -6 2 -15 -2 -19 -12
-12 -38 5 -30 19 9 14 23 14 32 0z m129 -14 c0 -11 -8 -21 -17 -23 -14 -3 -18
3 -18 23 0 20 4 26 18 23 9 -2 17 -12 17 -23z m1165 -26 c0 -5 -7 -9 -15 -9
-15 0 -20 12 -9 23 8 8 24 -1 24 -14z m4742 6 c0 -5 -5 -11 -11 -13 -6 -2 -11
4 -11 13 0 9 5 15 11 13 6 -2 11 -8 11 -13z m-5652 -35 c0 -11 -4 -20 -10 -20
-5 0 -10 2 -10 4 0 2 -3 11 -6 20 -4 11 -1 16 10 16 9 0 16 -8 16 -20z m-30
-45 c14 -17 5 -36 -15 -28 -16 6 -21 43 -6 43 5 0 14 -7 21 -15z m95 6 c7 -12
-12 -24 -25 -16 -11 7 -4 25 10 25 5 0 11 -4 15 -9z m765 -12 c0 -11 -27 -12
-34 0 -3 4 -3 11 0 14 8 8 34 -3 34 -14z m158 -11 c-6 -18 -28 -21 -28 -4 0 9
7 16 16 16 9 0 14 -5 12 -12z m-1088 -18 c0 -12 -28 -25 -36 -17 -9 9 6 27 22
27 8 0 14 -5 14 -10z m182 -16 c-5 -26 -10 -30 -23 -17 -14 14 -3 46 14 40 6
-2 10 -13 9 -23z m5346 -21 c2 -8 -5 -13 -17 -13 -12 0 -21 6 -21 16 0 18 31
15 38 -3z m-5303 -13 c11 -17 -5 -32 -21 -19 -8 6 -14 15 -14 20 0 12 27 11
35 -1z m5157 -18 c-7 -2 -9 -14 -6 -28 4 -16 2 -24 -6 -24 -7 0 -19 -8 -26
-17 -7 -10 -16 -14 -21 -10 -4 5 0 15 11 22 11 9 16 20 12 31 -4 10 2 23 16
36 16 14 24 16 27 7 2 -7 -1 -15 -7 -17z m-5192 -35 c0 -14 -20 -37 -32 -37
-10 0 -11 34 -1 43 11 12 33 8 33 -6z m98 -20 c2 -10 -3 -17 -12 -17 -18 0
-29 16 -21 31 9 14 29 6 33 -14z m276 -152 c-6 -16 -24 -21 -24 -7 0 11 11 22
21 22 5 0 6 -7 3 -15z m286 -130 c16 -19 3 -40 -16 -24 -15 13 -19 39 -5 39 5
0 14 -7 21 -15z m3540 -70 c0 -8 -9 -15 -20 -15 -11 0 -20 7 -20 15 0 8 9 15
20 15 11 0 20 -7 20 -15z m100 -24 c0 -22 -29 -36 -43 -22 -7 7 -6 15 3 26 17
21 40 19 40 -4z m-102 -152 c-2 -6 -8 -10 -13 -10 -5 0 -11 4 -13 10 -2 6 4
11 13 11 9 0 15 -5 13 -11z m-2819 -201 c-8 -14 -14 -17 -22 -9 -7 7 -6 15 3
25 17 22 32 9 19 -16z m171 -53 c0 -8 -4 -15 -9 -15 -13 0 -22 16 -14 24 11
11 23 6 23 -9z m-80 -11 c0 -17 -22 -14 -28 4 -2 7 3 12 12 12 9 0 16 -7 16
-16z m-170 -15 c0 -5 -4 -9 -10 -9 -5 0 -10 7 -10 16 0 8 5 12 10 9 6 -3 10
-10 10 -16z m480 -55 c0 -8 -7 -14 -15 -14 -15 0 -21 21 -9 33 10 9 24 -2 24
-19z m130 -59 c0 -8 -7 -15 -15 -15 -8 0 -15 7 -15 15 0 8 7 15 15 15 8 0 15
-7 15 -15z m-132 -49 c3 -12 -1 -17 -10 -14 -7 3 -15 13 -16 22 -3 12 1 17 10
14 7 -3 15 -13 16 -22z m52 -80 c0 -18 -16 -29 -30 -21 -13 8 -1 35 16 35 8 0
14 -6 14 -14z m60 -6 c0 -5 -7 -10 -15 -10 -8 0 -15 5 -15 10 0 6 7 10 15 10
8 0 15 -4 15 -10z m114 -56 c3 -9 4 -20 0 -25 -8 -13 -32 -11 -37 4 -11 32 25
53 37 21z m136 -40 c0 -9 -5 -14 -12 -12 -18 6 -21 28 -4 28 9 0 16 -7 16 -16z
m164 -83 c3 -4 3 -11 0 -14 -8 -8 -34 3 -34 14 0 11 27 12 34 0z m494 -52 c-2
-6 -8 -10 -13 -10 -5 0 -11 4 -13 10 -2 6 4 11 13 11 9 0 15 -5 13 -11z m-18
-64 c0 -8 -4 -15 -10 -15 -5 0 -10 7 -10 15 0 8 5 15 10 15 6 0 10 -7 10 -15z
m-115 -65 c3 -5 -1 -10 -9 -10 -9 0 -16 5 -16 10 0 6 4 10 9 10 6 0 13 -4 16
-10z"/>
</g>
</svg>
