<svg xmlns="http://www.w3.org/2000/svg" width="256" height="256" xml:space="preserve"><g style="stroke:none;stroke-width:0;stroke-dasharray:none;stroke-linecap:butt;stroke-linejoin:miter;stroke-miterlimit:10;fill:none;fill-rule:nonzero;opacity:1"><path d="M17.884 19.496 38.925 47.63 17.751 70.504h4.765l18.538-20.027 14.978 20.027h16.217L50.024 40.788l19.708-21.291h-4.765L47.895 37.94 34.101 19.496H17.884zm7.008 3.51h7.45L65.24 66.993h-7.45L24.892 23.006z" style="stroke:none;stroke-width:1;stroke-dasharray:none;stroke-linecap:butt;stroke-linejoin:miter;stroke-miterlimit:10;fill:#000;fill-rule:nonzero;opacity:1" transform="matrix(2.81 0 0 2.81 1.407 1.407)"/><path d="M71.01 90H18.99C8.519 90 0 81.481 0 71.01V18.99C0 8.519 8.519 0 18.99 0h52.02C81.481 0 90 8.519 90 18.99v52.02C90 81.481 81.481 90 71.01 90zM18.99 3C10.173 3 3 10.173 3 18.99v52.02C3 79.827 10.173 87 18.99 87h52.02C79.827 87 87 79.827 87 71.01V18.99C87 10.173 79.827 3 71.01 3H18.99z" style="stroke:none;stroke-width:1;stroke-dasharray:none;stroke-linecap:butt;stroke-linejoin:miter;stroke-miterlimit:10;fill:#000;fill-rule:nonzero;opacity:1" transform="matrix(2.81 0 0 2.81 1.407 1.407)"/></g></svg>